<svg width="23" height="22" viewBox="0 0 23 22" fill="none" xmlns="http://www.w3.org/2000/svg">
<path fill-rule="evenodd" clip-rule="evenodd" d="M0 21.27V0H13.32V3.9H4.14V8.76H12.45V12.45H4.14V17.37H13.32V21.27H0ZM16.95 18.75C16.95 17.99 17.215 17.345 17.745 16.815C18.275 16.285 18.92 16.02 19.68 16.02C20.06 16.02 20.42 16.09 20.76 16.23C21.1 16.37 21.395 16.565 21.645 16.815C21.895 17.065 22.09 17.355 22.23 17.685C22.37 18.015 22.44 18.37 22.44 18.75C22.44 19.13 22.37 19.485 22.23 19.815C22.09 20.145 21.895 20.435 21.645 20.685C21.395 20.935 21.1 21.13 20.76 21.27C20.42 21.41 20.06 21.48 19.68 21.48C18.92 21.48 18.275 21.215 17.745 20.685C17.215 20.155 16.95 19.51 16.95 18.75Z" fill="#323C46"/>
</svg>
